<?xml version="1.0" encoding="utf-8"?>
<!DOCTYPE svg PUBLIC "-//W3C//DTD SVG 1.0//EN" "http://www.w3.org/TR/2001/REC-SVG-20010904/DTD/svg10.dtd">
<svg version="1.0" xmlns="http://www.w3.org/2000/svg" width="696px" height="651px" viewBox="0 0 696 651" preserveAspectRatio="xMidYMid meet">
 <g fill="#074319">
  <path d="M332 546.3 c-29.5 -1.6 -43.7 -3.4 -68.1 -8.8 -68.3 -15.2 -136.9 -54.2 -190.1 -108.1 -26.2 -26.6 -44 -50 -55.5 -72.9 -12.9 -25.5 -13.1 -34.4 -1.8 -57.1 22.7 -45.4 73.2 -97.1 127.8 -130.8 75.8 -46.8 171.5 -65.8 262.7 -52.1 104.8 15.7 201.9 75.5 257 158.2 15.4 23.2 23 40.1 23 51.3 0 22.7 -32.9 73.1 -72.1 110.4 -44.8 42.7 -95.7 73.6 -151.2 92.1 -41.7 13.8 -88.5 20.2 -131.7 17.8z m11.2 -51.2 c28.7 -6.8 54.3 -19.6 75.4 -37.9 6.9 -6 18.4 -18.8 18.4 -20.5 0 -0.3 -1.5 -1.5 -3.3 -2.6 -4.8 -3 -9.8 -9.7 -11.9 -15.9 -2.3 -7 -2.4 -22.7 -0.3 -30 2.3 -7.8 8.7 -15 16.9 -19.2 6.3 -3.2 7.7 -3.5 17.1 -3.8 12.2 -0.4 16.2 0.5 24.3 5.8 14.7 9.4 19.9 28.4 12.9 47 -2.9 7.8 -13.1 17.9 -21 20.8 -3.2 1.2 -6.7 2.2 -7.7 2.2 -1.3 0 -2.7 1.5 -4.4 4.8 -5.6 11.1 -22.3 29.8 -34.3 38.5 -2.4 1.7 -4.2 3.2 -4 3.4 1.2 1.1 31.6 -8.5 51.7 -16.4 13.2 -5.2 33.1 -14.3 34.8 -15.8 1 -0.9 7.6 -26 10.6 -40 11.2 -52.2 13.9 -101.3 8.4 -152.7 l-1.1 -10.7 -13.6 -4.9 c-15 -5.5 -27.2 -9.5 -34.1 -11.2 -2.5 -0.6 -5.3 -1.3 -6.2 -1.6 -1.6 -0.5 -1.8 0.2 -1.8 5.1 0 6.7 -2 10.9 -6 13 -3.7 1.9 -10 1.9 -14.5 0.1 -4.9 -2.1 -6.5 -5.9 -6.5 -15.9 l0 -8.4 -9.3 -1.6 c-5.1 -1 -10.6 -1.7 -12.3 -1.7 l-2.9 0 -0.1 7.3 c-0.1 12.7 -5 17.5 -16.3 16.4 -4.3 -0.5 -6.1 -1.2 -8.5 -3.7 -3 -2.9 -3.1 -3.4 -3.4 -12.8 -0.2 -5.3 -0.7 -10 -1 -10.3 -0.4 -0.4 -6.9 -1 -14.4 -1.4 l-13.8 -0.7 0 8.6 c0 13.9 -3 17.6 -14.2 17.6 -8.9 0 -11.5 -2.1 -12.8 -10.5 -0.6 -3.3 -1 -8.2 -1 -10.9 l0 -4.8 -11.2 0.6 c-18.2 1.1 -16.6 -0.1 -17 12.2 -0.3 10.5 -0.3 10.6 -3.6 13.5 -2.9 2.6 -3.9 2.9 -10.2 2.9 -5.8 0 -7.3 -0.4 -9.7 -2.4 -2.6 -2.3 -2.8 -2.9 -3.1 -12 -0.4 -11.1 1.1 -10.3 -14.8 -8 l-11.1 1.7 -0.5 9.5 c-0.5 9.2 -0.7 9.7 -3.7 12.4 -2.8 2.5 -3.9 2.8 -10.1 2.8 -5.8 0 -7.3 -0.4 -9.7 -2.4 -2.4 -2.1 -2.8 -3.2 -3.1 -9.5 -0.2 -3.9 -0.6 -7.1 -0.8 -7.1 -1.8 0 -35.4 10.9 -43.9 14.2 l-11 4.4 -1.3 9.4 c-1.8 14.1 -2.7 68.6 -1.3 85.9 2.7 34.5 9.5 72 18.2 101.4 l2 6.7 12.2 5.9 c39.5 19 76.9 29.1 126.2 34 4.4 0.5 8.3 0.9 8.7 1 0.4 0 4.5 -0.8 9 -1.8z m121.1 -80.6 c4.1 -2.8 7.7 -9 7.7 -13.1 0 -3.3 -8.4 -12 -12.6 -13 -3.8 -1 -10.5 2.8 -13.8 7.5 -3.5 5 -3.4 9.9 0.1 14.2 6.1 7.2 12.3 8.6 18.6 4.4z m-326.9 -11.5 c-1.8 -10.9 -3.1 -21.5 -5.1 -42 -1.7 -17.7 -2.4 -81.1 -1 -88.4 l0.8 -3.8 -12.3 6.4 c-23.8 12.6 -47.9 28.3 -68.1 44.5 -11.7 9.5 -11.8 9.5 -10 11.7 13.1 15.4 34.3 35.9 50.8 49.1 14.1 11.2 45.2 32.3 46.1 31.2 0.1 -0.1 -0.5 -4 -1.2 -8.7z m438.9 -3.7 c13.5 -8.9 32.6 -23.7 44.2 -34.3 12 -10.9 33.5 -33.7 33.5 -35.4 0 -2.4 -29.7 -24.6 -51.2 -38.2 -11.9 -7.5 -36.5 -21.4 -38 -21.4 -0.4 0 -0.5 11.8 -0.1 26.3 0.8 37 -1.6 75.7 -6.7 105.4 l-1.7 10.3 3.6 -2.2 c2 -1.1 9.4 -5.9 16.4 -10.5z m-502.8 -129.7 c12.9 -8.5 36.8 -21.6 49.3 -27.1 5.9 -2.6 11.1 -5.1 11.6 -5.5 0.8 -0.8 7.8 -33.1 7.3 -33.7 -0.5 -0.4 -18.1 12.6 -27.4 20.2 -11.9 9.8 -37.5 35.1 -46.3 45.9 -3.5 4.4 -5.8 7.5 -5 7 0.8 -0.5 5.6 -3.6 10.5 -6.8z m557.9 6.2 c-2.7 -4.6 -14.9 -18.4 -26.9 -30.4 -14.4 -14.4 -29 -27 -42.9 -36.9 l-7.9 -5.7 0.7 3.4 c0.4 1.8 1.8 9.6 3.2 17.3 1.5 7.7 2.7 14 2.8 14 0 0.1 3.7 1.6 8.1 3.4 15.1 6.4 50 26 60 33.8 3.4 2.6 3.9 2.8 2.9 1.1z m-433.9 -63.2 c5.5 -1.8 13.9 -4.4 18.8 -5.7 l8.7 -2.4 0 -6.8 c0 -11.4 5 -16.4 15.2 -15.5 7.5 0.8 10.1 3.2 11.2 10.7 0.8 4.8 1.3 6 2.5 5.7 0.9 -0.3 6.7 -1.3 12.9 -2.2 l11.2 -1.7 0 -8.4 c0 -8.2 0.1 -8.6 3.1 -11.4 2.8 -2.6 3.8 -2.9 10 -2.9 6.2 0 7.2 0.3 10.1 2.9 3 2.6 3.3 3.4 3.6 10.1 l0.4 7.3 6.7 -0.7 c3.6 -0.3 10.1 -0.6 14.4 -0.6 l7.7 0 0 -8.2 c0.1 -8.6 0.6 -10.1 5 -13.1 3.1 -2.2 11.1 -2.2 15.6 -0.1 4.8 2.3 6.4 5.9 6.4 14.4 l0 7 9.3 0 c5 0 11.6 0.3 14.5 0.6 l5.2 0.7 0 -5.2 c0 -10.5 4.3 -15.1 14 -15.1 10.1 0 13.3 3.3 14 14.4 l0.5 8.1 12.1 2 12.2 2.1 0.4 -5.5 c0.7 -7.6 3.6 -10.1 11.9 -10.1 10.9 0 14.9 4.1 14.9 15.3 l0 6.3 12.3 3.4 c6.7 1.8 17.8 5.2 24.6 7.7 6.8 2.4 12.6 4.1 12.9 3.8 0.5 -0.5 -2.4 -13.4 -7 -30.9 l-3.1 -11.9 -11.2 -5.2 c-33.3 -15.7 -71.8 -26.9 -109.5 -32 -18.3 -2.5 -50.6 -3 -70 -1.1 -44.1 4.2 -85.3 15.3 -122.2 32.8 -10.6 5 -10.8 5.1 -12.2 9.7 -2.8 8.9 -6.8 23.7 -8.6 31.8 l-1.8 8.1 6.7 -2.5 c3.6 -1.4 11.1 -4 16.6 -5.7z"/>
  <path d="M342.1 474.4 c-10 -3.5 -18.7 -11.8 -21.8 -20.7 -2.4 -6.8 -2.4 -22.9 0 -30.7 3.2 -10.4 13 -19.9 24.2 -23.2 2.2 -0.7 8.5 -1.2 14 -1.2 8.6 0 10.8 0.4 15.7 2.6 7.9 3.6 14.2 9.8 18.1 17.7 3.1 6.3 3.2 7 3.1 18.1 0 14.9 -2.2 21 -10.3 29.1 -7.9 7.8 -13.8 9.9 -27.9 9.9 -7 -0.1 -12.2 -0.6 -15.1 -1.6z m20.2 -22.8 c6.6 -2.8 11.3 -11.1 9.6 -16.9 -1.3 -4.5 -5.3 -9.1 -9.8 -11.1 -3.9 -1.8 -4.3 -1.8 -8.6 -0.2 -4.5 1.8 -9.5 7 -11.4 11.9 -1.9 4.8 1.8 11.7 8.4 15.8 3.6 2.2 7.4 2.4 11.8 0.5z"/>
  <path d="M229.3 461.9 c-6.6 -2.6 -14.7 -9.8 -17.7 -15.8 -3.9 -7.8 -4.9 -13.3 -4.4 -23.9 0.6 -11.6 3.1 -18.3 9.5 -24.8 6.6 -6.7 14 -9.7 25.1 -10.2 5.6 -0.3 11.6 0.1 14.6 0.8 l5.1 1.2 12 -7.4 c21.7 -13.4 37.2 -26 51.6 -42.2 9.4 -10.6 9.7 -11.1 7.1 -11.4 -5.9 -0.6 -7 -1.2 -9.1 -5.5 -3.6 -7.4 -2.2 -16.5 2.8 -19.1 6.3 -3.3 41.6 -6.6 48.9 -4.7 7.2 2 7.4 2.8 7 28.1 l-0.3 22.2 -3.3 2.9 c-2.8 2.5 -4 2.9 -9.1 2.9 -4.9 0 -6.5 -0.4 -8.9 -2.5 -1.7 -1.4 -3.3 -3.9 -3.7 -5.4 -0.6 -2.9 -0.7 -2.8 -9.4 6.7 -18.6 20.5 -40.3 38.1 -62.1 50.3 -3.3 1.9 -4 2.8 -3.5 4.4 3.3 11.6 2.4 28.7 -1.8 37.1 -3.1 6 -10.2 12.8 -16.5 15.7 -7 3.2 -26.5 3.5 -33.9 0.6z m24.4 -24.8 c2.7 -2 4.7 -4.5 5.8 -7.5 1.7 -4.4 1.7 -4.6 -0.4 -8.8 -3.2 -6.6 -11.3 -11 -17.5 -9.4 -3.3 0.8 -8.3 5.2 -10.2 8.8 -2 3.9 -1.1 8.8 2.3 12.9 6.3 7.5 13.3 8.9 20 4z"/>
  <path d="M253.6 341 c-4.5 -4.4 -8.6 -8 -9.1 -8 -0.4 0 -4.3 3.4 -8.6 7.5 l-7.9 7.5 -5.6 0 c-4.8 0 -5.9 -0.4 -8.5 -2.9 -2.5 -2.6 -2.9 -3.7 -2.9 -8.6 l0 -5.7 8.1 -8.3 8 -8.3 -2.3 -2.4 c-13 -13.5 -12.8 -13.2 -12.8 -20.1 0 -9.3 2.1 -11.7 10 -11.7 6.6 0 8.8 1.4 17.9 11.3 l4.4 4.7 7.4 -7 c4.1 -3.9 8.5 -7.5 9.9 -8 5.7 -2.2 14.3 -0.2 15.8 3.5 0.3 0.9 0.6 4.4 0.6 7.7 l0 6 -8.1 7.9 -8.1 7.9 8.3 8.6 8.4 8.5 0 6.4 c0 5.3 -0.4 6.7 -2.4 8.9 -2.1 2.2 -3.3 2.6 -8.4 2.6 l-5.9 0 -8.2 -8z"/>
  <path d="M422.1 344.6 c-2.5 -2.7 -3.8 -9.6 -2.7 -14.1 0.4 -1.4 4.3 -6.4 8.8 -11.1 l8.1 -8.4 -8.2 -8.5 -8.1 -8.5 0 -6.9 c0 -6.3 0.2 -7.1 2.6 -9 2 -1.6 4.1 -2.1 8.5 -2.1 5.5 0 6.1 0.3 11.6 4.9 3.2 2.6 6.9 6 8.2 7.5 1.4 1.4 2.8 2.6 3.3 2.6 0.5 0 4.5 -3.2 8.9 -7 8.9 -7.9 11.1 -9 17.4 -9 3.2 0 5.1 0.7 7.4 2.6 2.8 2.4 3.1 3.1 3.1 8.8 l0 6.1 -9 9 -8.9 8.9 8.4 8.7 c4.6 4.8 8.7 9.9 9.1 11.4 1.1 4.5 -0.2 11.4 -2.7 14.1 -1.9 2.1 -3.2 2.4 -8.7 2.4 l-6.5 0 -8.5 -8.4 -8.6 -8.4 -9.3 8.4 -9.2 8.4 -6.4 0 c-5.4 0 -6.7 -0.4 -8.6 -2.4z"/>
 </g>
 <g fill="#a9ce88">
  <path d="M343.1 425.9 c2.2 -3.5 9.6 -6.9 14.7 -6.9 4.8 0 12.2 3.3 12.2 5.4 0 1 -2 1.6 -7 2 -3.8 0.3 -10.2 0.9 -14.2 1.2 l-7.2 0.6 1.5 -2.3z"/>
  <path d="M316.5 426.3 c-1.6 -0.2 -9.7 -1 -18 -1.9 -8.2 -0.8 -15.7 -1.7 -16.6 -2 -1.1 -0.3 -1.9 -2.1 -2.3 -5.2 -0.3 -2.6 -1.5 -6.2 -2.6 -8 -1.1 -1.8 -2 -3.4 -2 -3.6 0 -0.2 3.3 -2.3 7.3 -4.7 27.7 -16.3 51.2 -36.4 71.1 -60.6 l5.1 -6.2 0.6 6.1 c0.5 5.3 1.1 6.6 3.8 9 4.1 3.7 8.1 3.7 12.3 -0.1 l3.3 -2.9 0.3 -19.2 c0.3 -16.1 0.1 -19.5 -1.2 -21.5 -2.7 -4.1 -7.4 -4.6 -25.2 -3 -22 2 -25.5 3.2 -27.4 9 -1 3.1 -0.9 4.1 1 8 2.5 5.1 4.3 5.9 12 5.3 2.7 -0.1 5 -0.1 5 0.2 0 0.3 -5.5 6.8 -12.3 14.5 -17.2 19.6 -31.7 31.5 -59.1 48.4 l-9.9 6.1 -5.4 -2 c-9.9 -3.7 -22.1 -2.1 -31.2 3.9 -4 2.7 -10.5 9.7 -11.3 12.2 -0.4 1.3 -15.3 -2.8 -31.6 -8.9 -9.1 -3.4 -12.6 -5.1 -13.2 -6.6 -1 -2.8 -3.7 -24.9 -5 -40.6 -2 -25.1 -1.1 -73.5 1.8 -97 l0.7 -5.4 11 -4.4 c11 -4.3 39.8 -13.4 46.6 -14.7 l3.7 -0.7 0.4 7.7 c0.3 7 0.6 8 3.1 10.1 4 3.4 9.7 3.3 13.8 -0.4 3 -2.7 3.2 -3.2 3.7 -12.4 l0.5 -9.5 14.6 -2.2 c8 -1.2 15.1 -2.1 15.8 -2.1 0.7 0 1.2 3.3 1.5 10.1 0.3 9.6 0.4 10.2 3.1 12.5 4.1 3.5 9.7 3.3 13.9 -0.5 3.3 -2.9 3.3 -3 3.6 -13.5 l0.4 -10.5 3.1 -0.6 c1.8 -0.3 9.5 -0.7 17.2 -0.8 l13.9 -0.2 -0.2 4 c-0.2 2.2 0.1 6.9 0.7 10.5 1.3 7.8 4.1 11 9.9 11 8 0 11.2 -5.1 11.2 -17.5 l0 -8.5 8.3 0.1 c4.5 0.1 12.3 0.4 17.2 0.8 l9 0.6 0.5 10.2 c0.5 9.5 0.7 10.4 3.3 13.1 3.5 3.7 7.7 4.6 12.2 2.8 4.8 -2.1 6.8 -6.5 6.9 -15.6 l0.1 -7.5 5.5 0.2 c3 0.1 9.9 1 15.3 1.9 l9.7 1.7 0 8.6 c0 10.6 1.8 14.4 7.8 16.2 3.2 0.9 4.4 0.8 7 -0.5 4.4 -2.3 6.2 -6.3 6.2 -13.9 l0 -6.4 10.5 2.8 c12.8 3.4 20 5.7 37.6 12.1 l13.6 4.9 1.1 10.7 c3.7 34.1 3.9 68.1 0.6 100.6 -1.7 17 -3.9 33 -4.9 34.5 -0.3 0.6 -6.1 2.8 -12.9 5 -13.6 4.5 -21.3 6.1 -20.2 4.3 0.4 -0.6 0.2 -4.1 -0.5 -7.7 -1.6 -9.2 -7 -17.3 -15.1 -22.5 -7.7 -5 -12.4 -6.3 -21.4 -5.8 -14 0.7 -27.2 10.5 -30.9 23 -1.9 6.5 -1.9 16.8 0 23.2 0.8 2.7 1.4 5 1.3 5.1 -0.2 0.2 -7 1 -15.3 1.9 -8.2 1 -16.1 1.9 -17.5 2.2 -2.1 0.4 -2.9 -0.2 -4.9 -4.1 -2.8 -5.3 -9.3 -11.5 -15.1 -14.5 -17.1 -8.7 -40.2 -0.5 -48.3 17.3 -1.3 2.8 -2.8 4.6 -3.7 4.6 -0.8 -0.1 -2.8 -0.4 -4.5 -0.6z m-43.5 -82.8 c1.6 -1.7 2.4 -3.8 2.4 -5.9 0 -2.9 -1.3 -4.8 -9.2 -13.1 -5.1 -5.2 -9.2 -10 -9.2 -10.6 0 -0.6 4.1 -5 9 -9.9 7.5 -7.4 9 -9.4 9 -12 0 -4.2 -1.4 -6.5 -4.8 -7.9 -4.3 -1.8 -7.1 -0.2 -17.1 9.4 l-8.8 8.5 -5.9 -6.2 c-12.8 -13.5 -17.1 -15.6 -21.3 -10.2 -3.6 4.6 -2.8 8.8 2.7 14.7 2.7 2.9 6.7 7.2 9 9.7 2.3 2.4 3.8 4.7 3.4 5 -0.4 0.3 -4.6 4.6 -9.4 9.6 -10 10.4 -10.7 12.6 -5.9 17.5 4.8 4.7 7 4 16.9 -5.3 4.8 -4.6 8.9 -8.6 9 -9 0.6 -1.2 3 -0.9 3.9 0.5 0.5 0.6 4.7 4.9 9.4 9.5 9.7 9.2 12.7 10.2 16.9 5.7z m169.8 -7.4 c4.8 -4.3 9.6 -8.8 10.6 -10 l1.9 -2.1 10.2 10 c9 8.8 10.6 10 13.7 10 5.9 0 10.4 -7.1 7.7 -12.2 -0.6 -1.2 -5.2 -6.4 -10.2 -11.5 l-8.9 -9.2 2 -2.8 c1.1 -1.5 5.7 -6.4 10.1 -10.8 6.8 -6.6 8.1 -8.5 8.1 -11.1 0 -2.4 -0.8 -3.9 -3.1 -5.8 -1.7 -1.4 -3.7 -2.6 -4.6 -2.6 -3.2 0 -8.1 3.3 -16.7 11.3 l-8.9 8.3 -6.7 -6.3 c-13.8 -13 -17 -14.4 -22.4 -10.2 -2 1.6 -2.6 2.9 -2.6 6 0 3.6 0.8 4.8 8.8 13.2 4.8 5.1 9.1 9.5 9.6 9.9 0.5 0.3 -3.1 4.8 -8.1 10 -4.9 5.1 -9.5 10.4 -10.2 11.6 -2.7 5 1.8 12.2 7.6 12.2 2.7 0 4.8 -1.4 12.1 -7.9z"/>
  <path d="M252.5 416.5 c-0.5 -0.1 -4.7 -1.1 -9.3 -2.1 -6.4 -1.3 -8.2 -2.1 -8 -3.3 0.4 -2.1 7.5 -4.4 11.5 -3.7 6.3 0.9 15.1 6.5 13.8 8.7 -0.6 0.8 -5.7 1.1 -8 0.4z"/>
  <path d="M443.4 413.9 c-3.2 -3.4 -4.7 -9.6 -3.5 -14.8 2.7 -12.1 17.2 -18.2 26.7 -11.2 5.8 4.2 7.6 6.6 8.4 11.2 1 5.3 -0.5 10.7 -3.3 12 -1.2 0.5 -7.5 1.9 -14 3.2 l-11.7 2.3 -2.6 -2.7z"/>
  <path d="M558.7 372.3 c3.3 -29.4 4.1 -78 1.7 -102.7 l-0.7 -6.9 14.6 7.6 c32.5 16.9 84.7 53.2 84.7 58.9 0 1.6 -35.5 23 -50 30 -4.7 2.3 -9.2 4.5 -10 5 -3.5 1.9 -27 13.5 -32.7 16.1 -9.3 4.1 -9.1 4.4 -7.6 -8z"/>
  <path d="M129 379.2 c-34.4 -15.9 -60 -29.1 -67.7 -34.8 -1.7 -1.3 -3.4 -2.4 -3.8 -2.4 -1.6 0 -20.5 -13.4 -20.5 -14.6 0 -3.2 37.2 -30.5 60.7 -44.5 12 -7.1 37.2 -20.3 37.7 -19.7 0.2 0.2 -0.1 3.7 -0.6 7.8 -1.7 12.7 -1.3 68.3 0.5 87.8 0.9 9.4 1.9 18.3 2.3 19.7 0.6 2.2 0.3 2.5 -2.2 2.4 -1.6 0 -4.5 -0.8 -6.4 -1.7z"/>
  <path d="M47.2 291 c11.1 -19.4 42 -52.8 68.8 -74.3 8.6 -6.8 27.6 -20.2 30.3 -21.3 1.2 -0.4 1.1 0.9 -0.5 7.8 -1.1 4.6 -3.2 14.6 -4.7 22.3 -2.8 13.9 -2.8 14 -6.2 15.7 -1.9 0.9 -10.4 5 -18.9 9.2 -23.5 11.4 -47.5 26.3 -64.7 40.3 -2.9 2.4 -5.5 4.3 -5.8 4.3 -0.3 0 0.5 -1.8 1.7 -4z"/>
  <path d="M645 291.9 c-17.2 -14.5 -57.9 -39 -79.7 -48 l-8.2 -3.4 -1.1 -7 c-0.7 -3.8 -2.7 -14 -4.5 -22.5 -1.8 -8.5 -3.1 -15.7 -3 -15.8 0.2 -0.2 3.9 2 8.2 4.8 28 18.9 56.5 45.3 76.8 71.5 8.3 10.8 16.1 22.3 15.4 23 -0.2 0.2 -2 -1 -3.9 -2.6z"/>
  <path d="M170 225.5 c0 -4.4 7 -33.3 11.6 -47.6 1.4 -4.6 1.6 -4.7 12.2 -9.7 36.9 -17.5 78.1 -28.6 122.2 -32.8 19.8 -1.9 58.1 -1.4 76 1.1 38 5.2 76.2 16.4 109.5 32 l11.2 5.2 3.2 12.4 c2.9 10.7 6.4 25.6 8.6 36.8 0.7 3 0.5 3.3 -1.1 2.7 -8.8 -3.5 -34.2 -11.9 -44.1 -14.6 l-12.3 -3.4 0 -6.3 c0 -7.5 -1.8 -11.6 -6 -13.8 -4.2 -2.2 -8.5 -1.9 -11.6 0.8 -2.3 2 -2.8 3.4 -3.2 8.4 l-0.4 5.9 -15.2 -2.5 -15.1 -2.6 -0.5 -8.1 c-0.5 -8.6 -1.5 -10.5 -6.1 -13 -3.6 -1.8 -6.3 -1.8 -10 0.2 -3.8 1.9 -5.9 6.8 -5.9 13.5 l0 5.2 -9.7 -0.6 c-5.4 -0.4 -13.3 -0.7 -17.5 -0.7 l-7.8 0 0 -7 c0 -8.5 -1.6 -12.1 -6.4 -14.4 -4.3 -2 -6.5 -2 -9.6 0.1 -4.4 3 -4.9 4.5 -5 12.9 l0 8.1 -15.2 0.7 c-8.4 0.3 -16.3 0.9 -17.4 1.2 -2.1 0.5 -2.2 0.2 -2.6 -7.1 -0.3 -7.2 -0.6 -7.9 -3.6 -10.6 -4.5 -4 -9.8 -4 -14.1 0 -3 2.8 -3.1 3.2 -3.1 11.4 l0 8.4 -14.7 2.4 c-8.2 1.3 -15.4 2.4 -16.1 2.4 -0.9 0 -1.4 -1.9 -1.7 -5.8 -0.4 -6.6 -2 -9 -7.1 -10.7 -2.7 -0.9 -4 -0.8 -6.7 0.5 -4.9 2.3 -6.7 6.1 -6.7 14.2 l0 6.8 -8.7 2.4 c-11.4 3.1 -33.1 10.3 -42.2 14 -4.9 2 -7.1 2.5 -7.1 1.6z"/>
 </g>
 <g fill="#569e47">
  <path d="M322.5 498.9 c-49.3 -4.9 -86.7 -15 -126.2 -34 l-12.2 -5.9 -2 -6.7 c-3.6 -12.3 -7.9 -30.6 -10.6 -44.8 -1.4 -7.7 -2.7 -14.8 -2.9 -15.7 -0.5 -2.1 0 -2 16.3 4.2 7.4 2.9 14.3 5.3 15.5 5.4 1.2 0.2 3.4 0.8 4.9 1.5 1.6 0.6 3.2 1.1 3.7 1.1 0.5 0 2 0.4 3.4 1 l2.5 0.9 -2 4.6 c-6.1 13.7 -2.2 31.7 9.1 41.8 7.4 6.7 14.3 9 25 8.5 10.3 -0.5 15.9 -2.8 22.8 -9.2 7.1 -6.6 10.3 -14.3 10.4 -24.6 0 -7.7 0.4 -8.6 3.3 -8 0.6 0.1 2.8 0.4 5 0.6 2.2 0.3 5.4 0.7 7 0.9 14.8 2 20 2.5 21.5 2 1 -0.3 2.9 0 4.3 0.6 2.3 1 2.4 1.4 1.5 4.8 -1.7 6 -1.4 17.1 0.6 22.9 2.4 7 9.8 15 17.3 18.7 8.2 4.1 21.1 4.7 29.8 1.4 8.1 -3 16.3 -11.2 19.5 -19.4 2.9 -7.5 3.2 -20.9 0.7 -26.7 -1.8 -4.4 -1.3 -4.9 4.7 -5.3 2.2 -0.2 6.1 -0.5 8.6 -0.8 2.5 -0.2 8.2 -0.8 12.7 -1.2 l8.1 -0.7 1.6 2.9 c2.2 4.3 9.6 11.7 13.4 13.4 1.8 0.7 3.2 1.7 3.2 2.1 0 2.2 -13.5 18.1 -20.9 24.5 -21.4 18.7 -46.9 31.6 -75.9 38.4 -8.8 2 -11.1 2.1 -23.7 0.8z"/>
  <path d="M399 496.6 c0 -0.2 2.9 -2 6.4 -4 8.2 -4.6 20.3 -13.6 28.5 -21.2 7.4 -6.8 19.2 -21.7 22.7 -28.6 1.7 -3.3 3.1 -4.8 4.4 -4.8 1 0 4.5 -1 7.7 -2.2 10.9 -4 23.3 -19.4 23.3 -28.9 0 -3 1.8 -5.9 3.8 -5.9 1.3 0 20.1 -6 29.8 -9.4 2 -0.8 -4.8 33 -11.1 54.8 -1.8 6.5 -3.5 11.9 -3.7 12.1 -0.2 0.1 -4.3 2.3 -9.3 4.7 -21.7 10.8 -52.9 21.9 -81 28.7 -20.7 5.1 -21.5 5.2 -21.5 4.7z"/>
  <path d="M347.5 454.1 c-9.5 -5.9 -12.2 -17.2 -6.1 -26 2.4 -3.5 3 -3.8 7.9 -3.9 10.2 -0.4 17.7 -1.4 17.1 -2.4 -1.8 -2.9 4 1.9 6.1 5 6.3 9.6 2.7 23.7 -7.2 27.8 -4.8 2.1 -14.2 1.8 -17.8 -0.5z"/>
  <path d="M239.6 442.6 c-14 -5.2 -17.2 -23.3 -5.6 -31.7 2.3 -1.8 2.9 -1.8 8.3 -0.3 6 1.5 11.6 2.4 15.4 2.4 2.8 0 6.3 7.1 6.3 12.6 -0.1 12.4 -12.7 21.3 -24.4 17z"/>
  <path d="M453.7 420 c-3.9 -0.7 -8.8 -3.7 -9.4 -5.7 -0.3 -0.7 1.5 -1.4 4.2 -1.8 2.5 -0.4 4.8 -1.1 5.1 -1.7 0.3 -0.5 1.3 -0.6 2.3 -0.3 0.9 0.3 5.3 -0.4 9.6 -1.5 4.3 -1.1 8.2 -2 8.7 -2 1.9 0 -3.5 8.2 -7 10.4 -4.4 2.8 -8.3 3.6 -13.5 2.6z"/>
  <path d="M130.8 412.1 c-30.1 -17.9 -62.4 -44.3 -85.3 -70 -5.5 -6.2 -10.1 -11.6 -10.3 -12.1 -0.2 -0.4 1.1 -2.3 2.8 -4.2 1.6 -1.8 2.8 -2.6 2.5 -1.7 -0.4 1.1 2.1 3.4 9.4 8.2 5.5 3.7 10.3 6.7 10.6 6.7 0.4 0 2.1 1.1 3.8 2.4 8 5.9 52.3 28.6 68.9 35.2 4.4 1.7 4.8 2.2 4.8 5.2 0 1.8 1.2 10.5 2.6 19.3 1.4 8.8 2.4 16.4 2.2 17 -0.2 0.5 -5.6 -2.2 -12 -6z"/>
  <path d="M552 418.3 c-0.1 -2.1 5.4 -35.1 6.1 -37.1 0.6 -1.5 2.8 -3.1 6.2 -4.5 4.3 -1.7 26 -12.4 31.7 -15.5 0.8 -0.5 6.2 -3.2 12 -6.1 12.8 -6.4 42.7 -24.1 46.1 -27.3 2.3 -2.2 2.5 -2.2 4.2 -0.5 1.1 1.1 1.5 2.3 1 3.1 -1.2 2.1 -23.7 26.8 -27 29.5 -1.5 1.3 -5.6 5.1 -9.1 8.3 -14.8 13.7 -38.7 31.5 -57.8 43 -11.7 7.1 -13.4 8 -13.4 7.1z"/>
 </g>
</svg>